<svg width="25" height="24" viewBox="0 0 25 24" fill="none" xmlns="http://www.w3.org/2000/svg">
<g clip-path="url(#clip0_6231_55)">
<g clip-path="url(#clip1_6231_55)">
<path d="M18.5 9C19.352 9 19.797 9.986 19.283 10.623L19.207 10.707L13.207 16.707C13.0348 16.8792 12.8057 16.9826 12.5626 16.9979C12.3196 17.0132 12.0794 16.9393 11.887 16.79L11.793 16.707L5.79295 10.707L5.70995 10.613L5.65595 10.536L5.60195 10.44L5.58495 10.404L5.55795 10.337L5.52595 10.229L5.51595 10.176L5.50595 10.116L5.50195 10.059V9.941L5.50695 9.883L5.51595 9.823L5.52595 9.771L5.55795 9.663L5.58495 9.596L5.65495 9.464L5.71995 9.374L5.79295 9.293L5.88695 9.21L5.96395 9.156L6.05995 9.102L6.09595 9.085L6.16295 9.058L6.27095 9.026L6.32395 9.016L6.38395 9.006L6.44095 9.002L18.5 9Z" fill="#222222"/>
</g>
</g>
<defs>
<clipPath id="clip0_6231_55">
<rect width="24" height="24" fill="white" transform="translate(0.5)"/>
</clipPath>
<clipPath id="clip1_6231_55">
<rect width="24" height="24" fill="white" transform="translate(0.5)"/>
</clipPath>
</defs>
</svg>
